<svg xmlns="http://www.w3.org/2000/svg">
  <defs>
    <symbol viewBox="0 0 24 24" id="account">
      <path
        d="M12,4A4,4 0 0,1 16,8A4,4 0 0,1 12,12A4,4 0 0,1 8,8A4,4 0 0,1 12,4M12,14C16.42,14 20,15.79 20,18V20H4V18C4,15.79 7.58,14 12,14Z"/>
    </symbol>

    <symbol viewBox="0 0 24 24" id="lock">
      <path
        d="M12,17A2,2 0 0,0 14,15C14,13.89 13.1,13 12,13A2,2 0 0,0 10,15A2,2 0 0,0 12,17M18,8A2,2 0 0,1 20,10V20A2,2 0 0,1 18,22H6A2,2 0 0,1 4,20V10C4,8.89 4.9,8 6,8H7V6A5,5 0 0,1 12,1A5,5 0 0,1 17,6V8H18M12,3A3,3 0 0,0 9,6V8H15V6A3,3 0 0,0 12,3Z"/>
    </symbol>

    <symbol viewBox="0 0 24 24" id="eye">
      <path
        d="M12 6.36353C8.36364 6.36353 5.25818 8.62534 4 11.8181C5.25818 15.0108 8.36364 17.2726 12 17.2726C15.6364 17.2726 18.7418 15.0108 20 11.8181C18.7418 8.62534 15.6364 6.36353 12 6.36353ZM12 15.4544C9.99273 15.4544 8.36364 13.8253 8.36364 11.8181C8.36364 9.8108 9.99273 8.18171 12 8.18171C14.0073 8.18171 15.6364 9.8108 15.6364 11.8181C15.6364 13.8253 14.0073 15.4544 12 15.4544ZM12 9.63625C10.7927 9.63625 9.81818 10.6108 9.81818 11.8181C9.81818 13.0253 10.7927 13.9999 12 13.9999C13.2073 13.9999 14.1818 13.0253 14.1818 11.8181C14.1818 10.6108 13.2073 9.63625 12 9.63625Z"/>
    </symbol>

    <symbol viewBox="0 0 24 24" id="eye-off">
      <path
        d="M19.8978 11.978C20.0341 12.1949 20.0341 12.4705 19.8978 12.6874C19.7698 12.8907 16.7139 17.6659 12 17.6659C11.2675 17.6613 10.54 17.5437 9.84338 17.3173L17.7099 9.45076C18.5431 10.1973 19.2783 11.0465 19.8978 11.978ZM19.1372 5.19485C19.3974 5.45518 19.3974 5.87717 19.1372 6.1375L6.47078 18.8039C6.30429 18.9812 6.05444 19.0538 5.81887 18.9932C5.58331 18.9327 5.39941 18.7486 5.33903 18.513C5.27866 18.2774 5.35139 18.0276 5.5288 17.8612L7.34143 16.0486C6.0718 15.1281 4.97513 13.9901 4.10217 12.6874C3.96594 12.4705 3.96594 12.1949 4.10217 11.978C4.23017 11.7747 7.2861 6.99948 12 6.99948C13.2192 7.01176 14.417 7.32089 15.4899 7.90013L18.1952 5.19485C18.4555 4.93505 18.8769 4.93505 19.1372 5.19485ZM9.33339 12.3327C9.33631 12.8061 9.46864 13.2697 9.71605 13.6733L13.3413 10.0487C12.9376 9.80094 12.4737 9.66859 12 9.66609C10.5273 9.66609 9.33339 10.86 9.33339 12.3327Z"/>
    </symbol>

    <symbol viewBox="0 0 24 24" id="success">
      <path
        d="M20,12A8,8 0 0,1 12,20A8,8 0 0,1 4,12A8,8 0 0,1 12,4C12.76,4 13.5,4.11 14.2,4.31L15.77,2.74C14.61,2.26 13.34,2 12,2A10,10 0 0,0 2,12A10,10 0 0,0 12,22A10,10 0 0,0 22,12M7.91,10.08L6.5,11.5L11,16L21,6L19.59,4.58L11,13.17L7.91,10.08Z"/>
    </symbol>

    <symbol viewBox="0 0 24 24" id="info">
      <path
        d="M11,9H13V7H11M12,20C7.59,20 4,16.41 4,12C4,7.59 7.59,4 12,4C16.41,4 20,7.59 20,12C20,16.41 16.41,20 12,20M12,2A10,10 0 0,0 2,12A10,10 0 0,0 12,22A10,10 0 0,0 22,12A10,10 0 0,0 12,2M11,17H13V11H11V17Z"/>
    </symbol>

    <symbol viewBox="0 0 16 16" id="close">
      <path
        d="M11.7661 4.23395C11.454 3.92202 10.9482 3.92202 10.6362 4.23395L8.005 6.86516L5.37379 4.23395C5.06026 3.93113 4.5619 3.93547 4.25369 4.24368C3.94547 4.55189 3.94114 5.05026 4.24396 5.36378L6.87517 7.995L4.24396 10.6262C4.03624 10.8268 3.95294 11.1239 4.02606 11.4033C4.09919 11.6826 4.31736 11.9008 4.59672 11.9739C4.87609 12.0471 5.17317 11.9638 5.37379 11.756L8.005 9.12483L10.6362 11.756C10.9497 12.0589 11.4481 12.0545 11.7563 11.7463C12.0645 11.4381 12.0689 10.9397 11.7661 10.6262L9.13484 7.995L11.7661 5.36378C12.078 5.05176 12.078 4.54597 11.7661 4.23395Z"/>
    </symbol>
  </defs>
</svg>
